<?xml version="1.0" encoding="UTF-8" standalone="no"?>
<svg xmlns="http://www.w3.org/2000/svg" width="200" height="200" viewBox="0 0 200 200">
  <!-- Background -->
  <rect width="200" height="200" fill="#e6f2e8" rx="5" />
  
  <!-- Sun -->
  <circle cx="40" cy="40" r="20" fill="#ffcc33" />
  <g fill="none" stroke="#ffcc33" stroke-width="2">
    <line x1="40" y1="10" x2="40" y2="0" />
    <line x1="40" y1="80" x2="40" y2="70" />
    <line x1="10" y1="40" x2="0" y2="40" />
    <line x1="80" y1="40" x2="70" y2="40" />
    <line x1="19" y1="19" x2="12" y2="12" />
    <line x1="68" y1="68" x2="61" y2="61" />
    <line x1="19" y1="61" x2="12" y2="68" />
    <line x1="68" y1="12" x2="61" y2="19" />
  </g>
  
  <!-- Soil/Ground -->
  <rect x="0" y="120" width="200" height="80" fill="#8b5e3c" />
  <path d="M0,120 C30,110 70,130 100,120 C130,110 170,130 200,120 L200,130 L0,130 Z" fill="#6d4c3d" />
  
  <!-- Farm field pattern -->
  <g fill="none" stroke="#5d4037" stroke-width="0.5">
    <path d="M0,140 L200,140" />
    <path d="M0,160 L200,160" />
    <path d="M0,180 L200,180" />
    
    <path d="M20,120 L20,200" />
    <path d="M60,120 L60,200" />
    <path d="M100,120 L100,200" />
    <path d="M140,120 L140,200" />
    <path d="M180,120 L180,200" />
  </g>
  
  <!-- Crops -->
  <g fill="#2e7d32">
    <!-- Left field -->
    <circle cx="10" cy="130" r="3" />
    <circle cx="30" cy="130" r="3" />
    <circle cx="50" cy="130" r="3" />
    <circle cx="10" cy="150" r="3" />
    <circle cx="30" cy="150" r="3" />
    <circle cx="50" cy="150" r="3" />
    <circle cx="10" cy="170" r="3" />
    <circle cx="30" cy="170" r="3" />
    <circle cx="50" cy="170" r="3" />
    <circle cx="10" cy="190" r="3" />
    <circle cx="30" cy="190" r="3" />
    <circle cx="50" cy="190" r="3" />
  </g>
  
  <g fill="#689f38">
    <!-- Middle field -->
    <rect x="68" y="128" width="4" height="12" rx="2" />
    <circle cx="70" cy="126" r="4" />
    <rect x="88" y="128" width="4" height="12" rx="2" />
    <circle cx="90" cy="126" r="4" />
    <rect x="108" y="128" width="4" height="12" rx="2" />
    <circle cx="110" cy="126" r="4" />
    <rect x="68" y="148" width="4" height="12" rx="2" />
    <circle cx="70" cy="146" r="4" />
    <rect x="88" y="148" width="4" height="12" rx="2" />
    <circle cx="90" cy="146" r="4" />
    <rect x="108" y="148" width="4" height="12" rx="2" />
    <circle cx="110" cy="146" r="4" />
    <rect x="68" y="168" width="4" height="12" rx="2" />
    <circle cx="70" cy="166" r="4" />
    <rect x="88" y="168" width="4" height="12" rx="2" />
    <circle cx="90" cy="166" r="4" />
    <rect x="108" y="168" width="4" height="12" rx="2" />
    <circle cx="110" cy="166" r="4" />
    <rect x="68" y="188" width="4" height="12" rx="2" />
    <circle cx="70" cy="186" r="4" />
    <rect x="88" y="188" width="4" height="12" rx="2" />
    <circle cx="90" cy="186" r="4" />
    <rect x="108" y="188" width="4" height="12" rx="2" />
    <circle cx="110" cy="186" r="4" />
  </g>
  
  <g fill="#ffeb3b">
    <!-- Right field - corn -->
    <rect x="130" y="125" width="2" height="15" />
    <path d="M131,125 C128,120 134,120 131,125" />
    <rect x="150" y="125" width="2" height="15" />
    <path d="M151,125 C148,120 154,120 151,125" />
    <rect x="170" y="125" width="2" height="15" />
    <path d="M171,125 C168,120 174,120 171,125" />
    <rect x="190" y="125" width="2" height="15" />
    <path d="M191,125 C188,120 194,120 191,125" />
    
    <rect x="130" y="145" width="2" height="15" />
    <path d="M131,145 C128,140 134,140 131,145" />
    <rect x="150" y="145" width="2" height="15" />
    <path d="M151,145 C148,140 154,140 151,145" />
    <rect x="170" y="145" width="2" height="15" />
    <path d="M171,145 C168,140 174,140 171,145" />
    <rect x="190" y="145" width="2" height="15" />
    <path d="M191,145 C188,140 194,140 191,145" />
    
    <rect x="130" y="165" width="2" height="15" />
    <path d="M131,165 C128,160 134,160 131,165" />
    <rect x="150" y="165" width="2" height="15" />
    <path d="M151,165 C148,160 154,160 151,165" />
    <rect x="170" y="165" width="2" height="15" />
    <path d="M171,165 C168,160 174,160 171,165" />
    <rect x="190" y="165" width="2" height="15" />
    <path d="M191,165 C188,160 194,160 191,165" />
    
    <rect x="130" y="185" width="2" height="15" />
    <path d="M131,185 C128,180 134,180 131,185" />
    <rect x="150" y="185" width="2" height="15" />
    <path d="M151,185 C148,180 154,180 151,185" />
    <rect x="170" y="185" width="2" height="15" />
    <path d="M171,185 C168,180 174,180 171,185" />
    <rect x="190" y="185" width="2" height="15" />
    <path d="M191,185 C188,180 194,180 191,185" />
  </g>
  
  <!-- Farmhouse -->
  <rect x="120" y="40" width="50" height="40" fill="#f9f9f9" stroke="#424242" stroke-width="1" />
  <polygon points="120,40 145,15 170,40" fill="#bc6c25" stroke="#424242" stroke-width="1" />
  <rect x="135" y="60" width="20" height="20" fill="#6d4c3d" stroke="#424242" stroke-width="1" />
  <circle cx="139" cy="70" r="2" fill="#e0e0e0" />
  <rect x="125" y="45" width="10" height="10" fill="#90caf9" stroke="#424242" stroke-width="0.5" />
  <rect x="155" y="45" width="10" height="10" fill="#90caf9" stroke="#424242" stroke-width="0.5" />
  
  <!-- Clouds -->
  <g fill="#fff">
    <circle cx="110" cy="30" r="10" />
    <circle cx="120" cy="25" r="12" />
    <circle cx="130" cy="30" r="10" />
    <circle cx="120" cy="35" r="8" />
    
    <circle cx="30" cy="80" r="8" />
    <circle cx="38" cy="82" r="10" />
    <circle cx="45" cy="80" r="8" />
  </g>
  
  <!-- Trees -->
  <rect x="25" y="95" width="6" height="25" fill="#8b4513" />
  <circle cx="28" cy="85" r="15" fill="#388e3c" />
  
  <rect x="185" y="100" width="5" height="20" fill="#8b4513" />
  <circle cx="187.5" cy="90" r="12" fill="#388e3c" />
</svg>