<?xml version="1.0" encoding="UTF-8"?>
<svg xmlns="http://www.w3.org/2000/svg" viewBox="0 0 400 400">
  <!-- Sky and Background -->
  <rect x="0" y="0" width="400" height="250" fill="#87CEEB"/>
  <rect x="0" y="250" width="400" height="150" fill="#8B4513"/>
  
  <!-- Sun -->
  <circle cx="330" cy="70" r="40" fill="#FFFF00"/>
  <circle cx="330" cy="70" r="30" fill="#FFA500"/>
  
  <!-- Cloud -->
  <ellipse cx="90" cy="80" rx="40" ry="20" fill="white"/>
  <ellipse cx="110" cy="65" rx="30" ry="15" fill="white"/>
  <ellipse cx="70" cy="65" rx="30" ry="15" fill="white"/>
  
  <!-- Mountains -->
  <polygon points="0,250 100,150 200,250" fill="#808080"/>
  <polygon points="150,250 250,100 350,250" fill="#A9A9A9"/>
  <polygon points="300,250 370,170 400,250" fill="#696969"/>

  <!-- Farmhouse -->
  <rect x="70" y="190" width="90" height="60" fill="#CD853F"/>
  <polygon points="70,190 115,150 160,190" fill="#A52A2A"/>
  <rect x="95" y="210" width="20" height="40" fill="#8B4513"/>
  <rect x="125" y="200" width="15" height="15" fill="#87CEEB"/>
  
  <!-- Fence -->
  <line x1="0" y1="265" x2="400" y2="265" stroke="white" stroke-width="3"/>
  <line x1="30" y1="255" x2="30" y2="275" stroke="white" stroke-width="3"/>
  <line x1="70" y1="255" x2="70" y2="275" stroke="white" stroke-width="3"/>
  <line x1="110" y1="255" x2="110" y2="275" stroke="white" stroke-width="3"/>
  <line x1="150" y1="255" x2="150" y2="275" stroke="white" stroke-width="3"/>
  <line x1="190" y1="255" x2="190" y2="275" stroke="white" stroke-width="3"/>
  <line x1="230" y1="255" x2="230" y2="275" stroke="white" stroke-width="3"/>
  <line x1="270" y1="255" x2="270" y2="275" stroke="white" stroke-width="3"/>
  <line x1="310" y1="255" x2="310" y2="275" stroke="white" stroke-width="3"/>
  <line x1="350" y1="255" x2="350" y2="275" stroke="white" stroke-width="3"/>
  <line x1="390" y1="255" x2="390" y2="275" stroke="white" stroke-width="3"/>
  
  <!-- Fields -->
  <rect x="200" y="180" width="180" height="70" fill="#228B22"/>
  <line x1="200" y1="200" x2="380" y2="200" stroke="#7CFC00" stroke-width="2"/>
  <line x1="200" y1="220" x2="380" y2="220" stroke="#7CFC00" stroke-width="2"/>
  <line x1="200" y1="240" x2="380" y2="240" stroke="#7CFC00" stroke-width="2"/>
  <line x1="240" y1="180" x2="240" y2="250" stroke="#7CFC00" stroke-width="2"/>
  <line x1="280" y1="180" x2="280" y2="250" stroke="#7CFC00" stroke-width="2"/>
  <line x1="320" y1="180" x2="320" y2="250" stroke="#7CFC00" stroke-width="2"/>
  <line x1="360" y1="180" x2="360" y2="250" stroke="#7CFC00" stroke-width="2"/>
  
  <!-- Tractor -->
  <rect x="30" y="280" width="40" height="20" fill="#FF0000"/>
  <rect x="55" y="275" width="25" height="25" fill="#FF0000"/>
  <circle cx="40" cy="300" r="10" fill="black"/>
  <circle cx="70" cy="300" r="15" fill="black"/>
  
  <!-- Crops -->
  <rect x="110" y="280" width="260" height="40" fill="#228B22"/>
  <line x1="130" y1="280" x2="130" y2="270" stroke="#228B22" stroke-width="2"/>
  <line x1="160" y1="280" x2="160" y2="265" stroke="#228B22" stroke-width="2"/>
  <line x1="190" y1="280" x2="190" y2="270" stroke="#228B22" stroke-width="2"/>
  <line x1="220" y1="280" x2="220" y2="267" stroke="#228B22" stroke-width="2"/>
  <line x1="250" y1="280" x2="250" y2="272" stroke="#228B22" stroke-width="2"/>
  <line x1="280" y1="280" x2="280" y2="268" stroke="#228B22" stroke-width="2"/>
  <line x1="310" y1="280" x2="310" y2="271" stroke="#228B22" stroke-width="2"/>
  <line x1="340" y1="280" x2="340" y2="273" stroke="#228B22" stroke-width="2"/>
  
  <!-- Tree -->
  <rect x="380" y="260" width="10" height="40" fill="#8B4513"/>
  <circle cx="385" cy="250" r="20" fill="#006400"/>
</svg>